<svg xmlns="http://www.w3.org/2000/svg" xmlns:xlink="http://www.w3.org/1999/xlink" contentStyleType="text/css" data-diagram-type="CLASS" height="182px" preserveAspectRatio="none" style="width:991px;height:182px;background:#FFFFFF;" version="1.1" viewBox="0 0 991 182" width="991px" zoomAndPan="magnify"><?plantuml 1.2026.3?><defs/><g><g class="title" data-source-line="1"><text fill="#000000" font-family="sans-serif" font-size="14" font-weight="700" lengthAdjust="spacing" textLength="593.3525" x="195.479" y="22.9951">extract_edge_data_comprehensive (from src/core/bean_vuln_cli_backup.py)</text></g><!--cluster core--><g class="cluster" data-qualified-name="core" data-source-line="3" id="ent0002"><path d="M8.5,43.2969 L43.8164,43.2969 A3.75,3.75 0 0 1 46.3164,45.7969 L53.3164,65.5938 L417.5,65.5938 A2.5,2.5 0 0 1 420,68.0938 L420,164.7969 A2.5,2.5 0 0 1 417.5,167.2969 L8.5,167.2969 A2.5,2.5 0 0 1 6,164.7969 L6,45.7969 A2.5,2.5 0 0 1 8.5,43.2969" fill="none" style="stroke:#000000;stroke-width:1.5;"/><line style="stroke:#000000;stroke-width:1.5;" x1="6" x2="53.3164" y1="65.5938" y2="65.5938"/><text fill="#000000" font-family="sans-serif" font-size="14" font-weight="700" lengthAdjust="spacing" textLength="34.3164" x="10" y="58.292">core</text></g><!--class extract_edge_data_comprehensive--><g class="entity" data-qualified-name="core.extract_edge_data_comprehensive" data-source-line="4" id="ent0003"><rect fill="#F1F1F1" height="72.5625" rx="2.5" ry="2.5" style="stroke:#181818;stroke-width:0.5;" width="383.2939" x="21.5" y="78.2969"/><ellipse cx="86.3765" cy="98.4297" fill="#ADD1B2" rx="11" ry="11" style="stroke:#181818;stroke-width:1;"/><path d="M89.3452,104.0703 Q88.7671,104.3672 88.1265,104.5078 Q87.4858,104.6641 86.7827,104.6641 Q84.2827,104.6641 82.9546,103.0234 Q81.6421,101.3672 81.6421,98.2422 Q81.6421,95.1172 82.9546,93.4609 Q84.2827,91.8047 86.7827,91.8047 Q87.4858,91.8047 88.1265,91.9609 Q88.7827,92.1172 89.3452,92.4141 L89.3452,95.1328 Q88.7202,94.5547 88.1265,94.2891 Q87.5327,94.0078 86.9077,94.0078 Q85.564,94.0078 84.8765,95.0859 Q84.189,96.1484 84.189,98.2422 Q84.189,100.3359 84.8765,101.4141 Q85.564,102.4766 86.9077,102.4766 Q87.5327,102.4766 88.1265,102.2109 Q88.7202,101.9297 89.3452,101.3516 L89.3452,104.0703 Z " fill="#000000"/><text fill="#000000" font-family="sans-serif" font-size="12" font-style="italic" lengthAdjust="spacing" textLength="63.832" x="197.481" y="94.4355">&#171;function&#187;</text><text fill="#000000" font-family="sans-serif" font-size="14" lengthAdjust="spacing" textLength="245.041" x="106.8765" y="110.2607">extract_edge_data_comprehensive</text><line style="stroke:#181818;stroke-width:0.5;" x1="22.5" x2="403.7939" y1="118.5625" y2="118.5625"/><line style="stroke:#181818;stroke-width:0.5;" x1="22.5" x2="403.7939" y1="126.5625" y2="126.5625"/><text fill="#000000" font-family="sans-serif" font-size="14" lengthAdjust="spacing" textLength="371.2939" x="27.5" y="143.5576">+extract_edge_data_comprehensive(analysis_result)</text></g><g class="entity" data-qualified-name="GMN4" data-source-line="11" id="ent0005"><path d="M439.5,87.2969 L439.5,110.7969 L404.91,114.7969 L439.5,118.7969 L439.5,142.6953 A0,0 0 0 0 439.5,142.6953 L976.3105,142.6953 A0,0 0 0 0 976.3105,142.6953 L976.3105,97.2969 L966.3105,87.2969 L439.5,87.2969 A0,0 0 0 0 439.5,87.2969" fill="#FEFFDD" style="stroke:#181818;stroke-width:0.5;"/><path d="M966.3105,87.2969 L966.3105,97.2969 L976.3105,97.2969 L966.3105,87.2969" fill="#FEFFDD" style="stroke:#181818;stroke-width:0.5;"/><text fill="#000000" font-family="sans-serif" font-size="13" lengthAdjust="spacing" textLength="468.7935" x="445.5" y="104.3638">Performs deep inspection of analysis results (objects or dicts) to extract</text><text fill="#000000" font-family="sans-serif" font-size="13" lengthAdjust="spacing" textLength="515.8105" x="445.5" y="119.4966">node/edge counts and related metrics. Handles multiple edge storage patterns</text><text fill="#000000" font-family="sans-serif" font-size="13" lengthAdjust="spacing" textLength="216.1885" x="445.5" y="134.6294">and recurses to find edge arrays.</text></g><?plantuml-src XP71JiCm38RlUGhVs0JQEADf4ZUu8NY0oatTDf0caUqC1jgxaxIKwswEy_-_FoVgr1FGbp9QRQWRgEbGiR5nIamZ1N4dWatFSG9XkxUHQTyIXkQKVMYiTqsBzYEdNJflZNoua91n0kjHv56LNPkLdcqCR-wRuDwaeiQ1e0R1Zu55UPNWSEXpiEfYE1vd6y3jDTC60_gpE6cO97lTphORU2ND7EG19YfyLg1pLk7JwGWXTbH2Sj0xc5F_wg8SOxUUB7h_N_V3KfRmYxaO4w8Ii1j6XTXVGpGln7tagJ0G9N114irRLk-A3mk-m2Qsx-LQ8FBCB5lGk8umbNrVvy3C8yNV5Qj7fMvTTGTFfUj9O2g9BjM_hmxHoFLN4gfIUHkpU6rcATeof7UbCKkH6S-oCrGQTLVp2m00?></g></svg>